<?xml version="1.0" encoding="utf-8"?>
<!-- Generator: Adobe Illustrator 21.0.2, SVG Export Plug-In . SVG Version: 6.00 Build 0)  -->
<svg version="1.1" id="Layer_1" xmlns="http://www.w3.org/2000/svg" xmlns:xlink="http://www.w3.org/1999/xlink" x="0px" y="0px"
	 viewBox="0 0 250 170" style="enable-background:new 0 0 250 170;" xml:space="preserve">
<style type="text/css">
	.st0{fill:#0C0C3F;stroke:#44332A;stroke-width:3;stroke-linecap:round;stroke-linejoin:round;stroke-miterlimit:10;}
	.st1{fill:#0C0C3F;}
</style>
<g>
	<g>
		<path class="st0" d="M20,25.4c0-2.3-0.8-4-2.3-5c-1.5-1-4.4-1.8-8.6-2.5c-1.1-0.2-1.6-1.2-1.6-3c0-0.7,0.1-1.6,0.3-2.8
			c3.4,0.2,6.9,0.4,10.5,0.6c3.6,0.2,6.6,0.3,9.1,0.3c2.5,0,5.5-0.1,9.1-0.3c3.5-0.2,6.8-0.4,9.8-0.6c0.2,1.2,0.3,2.1,0.3,2.8
			c0,1.9-0.6,2.9-1.7,3c-3.9,0.7-6.5,1.5-8,2.5c-1.4,1-2.1,2.7-2.1,5v75.8c0,8.2-0.3,15.2-0.9,21c-0.6,5.8-2,11.1-4.1,15.8
			c-2.1,4.7-5.1,9.2-9,13.5c-3.9,4.3-9,8.8-15.4,13.7c-1.4-1.2-2-2.4-2-3.7c0-0.8,0.3-1.5,0.8-2.1c5.8-6.2,9.9-12.5,12.3-18.9
			c2.4-6.4,3.6-13.7,3.6-21.9V25.4z"/>
		<path class="st0" d="M41.5,89.8c0-5.4,0.9-10.4,2.8-15.2c1.8-4.8,4.3-8.9,7.5-12.4c3.2-3.5,6.9-6.3,11.1-8.3
			c4.3-2,8.8-3.1,13.8-3.1c5.1,0,9.9,1,14.2,2.9c4.3,1.9,8,4.6,11.1,8c3.1,3.4,5.5,7.5,7.2,12.3c1.7,4.8,2.6,10.1,2.6,15.8
			c0,5.5-0.9,10.6-2.8,15.3c-1.8,4.7-4.3,8.8-7.5,12.3c-3.2,3.5-6.9,6.3-11.1,8.3c-4.3,2-8.8,3.1-13.8,3.1c-5.1,0-9.9-1-14.2-2.9
			c-4.3-1.9-8-4.6-11.1-8c-3.1-3.4-5.5-7.5-7.2-12.2C42.4,100.9,41.5,95.6,41.5,89.8z M56.4,84c0,4.3,0.4,8.8,1.3,13.3
			c0.8,4.6,2.1,8.7,3.9,12.3s4,6.7,6.7,9.1c2.7,2.4,6,3.6,9.9,3.6c6,0,10.6-2.3,13.9-7c3.3-4.7,5-10.7,5-18c0-4.3-0.4-8.8-1.2-13.6
			s-2-9-3.8-13c-1.7-3.9-4-7.1-6.8-9.7c-2.8-2.6-6.2-3.9-10.3-3.9c-5.6,0-10.1,2.1-13.5,6.4C58.1,67.9,56.4,74.7,56.4,84z"/>
		<path class="st0" d="M145.5,127.6c-2.7-0.2-5.5-0.4-8.4-0.6s-5.7-0.3-8.6-0.3c-2.9,0-5.8,0.1-8.8,0.3s-5.8,0.4-8.4,0.6
			c-0.2-1.2-0.3-2.1-0.3-2.8c0-1.2,0.5-1.9,1.4-2.1c2.3-0.5,4.5-1.1,6.5-2c2-0.9,3-2.2,3-4.1V22.4c0-3.7-0.7-6.3-2-7.6
			c-1.3-1.3-3.8-2.2-7.5-2.5c-1.4-0.2-2-1-2-2.4c0-0.7,0.1-1.5,0.3-2.5c1.4,0,3.3-0.1,5.7-0.3c2.4-0.2,4.6-0.4,6.6-0.6
			c2.4-0.4,4.6-0.8,6.5-1.4c1.9-0.6,3.3-0.9,4.1-0.9c1,0,1.6,0.2,1.9,0.7c0.3,0.5,0.5,1.1,0.5,1.9c0,2-0.2,4.3-0.5,6.9
			c-0.3,2.6-0.5,5.7-0.5,9.2v93.6c0,1.9,1,3.2,2.9,4.1c1.9,0.9,4.1,1.5,6.5,2c0.8,0.2,1.3,0.9,1.3,2.1
			C145.8,125.5,145.7,126.4,145.5,127.6z"/>
		<path class="st0" d="M160.4,126.7c-1.8,0-3.6,0-5.5,0.1c-1.9,0.1-3.6,0.1-5.1,0.3c-1.6,0.1-2.9,0.2-4.1,0.4
			c-1.2,0.1-1.9,0.2-2.2,0.2c0-0.1-0.1-0.5-0.2-1.2c-0.1-0.7-0.2-1.2-0.2-1.6c0-1.2,0.5-1.9,1.4-2.1c2.7-0.6,4.9-1.3,6.6-2.1
			c1.7-0.8,2.5-2.2,2.5-4V68.9c0-3.5-0.6-6-1.7-7.5c-1.1-1.5-3.5-2.5-7.2-2.8c-1.4-0.2-2-1-2-2.4c0-0.6,0.1-1.3,0.3-2.3
			c1.4,0,3.3-0.1,5.7-0.3c2.5-0.2,4.5-0.4,6.1-0.6c2.4-0.5,4.6-1,6.5-1.5c1.9-0.5,3.3-0.8,4.1-0.8c1.5,0,2.2,0.9,2.2,2.6
			c0,1.6-0.2,3.6-0.5,5.9c-0.3,2.3-0.5,5.3-0.5,9v48.3c0,1.9,0.8,3.2,2.4,4c1.6,0.8,3.9,1.5,6.9,2.1c0.8,0.2,1.3,0.9,1.3,2.1
			c0,0.3,0,0.9-0.1,1.6c-0.1,0.7-0.1,1.1-0.2,1.2c-0.3,0-1-0.1-2.1-0.2c-1.1-0.1-2.4-0.2-4-0.4c-1.6-0.1-3.3-0.2-5.1-0.3
			C164,126.7,162.2,126.7,160.4,126.7z M151.2,21.5c0-2.8,0.9-5.2,2.6-7.3c1.7-2,3.9-3.1,6.5-3.1c2.5,0,4.6,1,6.3,3.1
			c1.7,2,2.5,4.5,2.5,7.3c0,3-0.8,5.5-2.5,7.3c-1.7,1.9-3.8,2.8-6.3,2.8c-2.6,0-4.8-0.9-6.5-2.8C152,27,151.2,24.5,151.2,21.5z"/>
		<path class="st0" d="M231.7,110.4c0.7-0.8,1.5-1.2,2.4-1.2c1,0,2,1,3,3c-1.4,2.1-2.9,4.1-4.7,6.1c-1.8,2-3.9,3.8-6.4,5.3
			c-2.5,1.6-5.3,2.8-8.4,3.8s-6.8,1.4-10.9,1.4c-4.2,0-8.2-0.8-12-2.3c-3.8-1.5-7.1-3.9-10-7c-2.9-3.2-5.2-7.1-6.9-11.7
			c-1.7-4.7-2.6-10.1-2.6-16.4c0-6,1-11.4,3.1-16.5c2-5,4.7-9.3,8-12.9c3.3-3.6,6.9-6.3,10.8-8.3c3.9-2,7.7-3,11.4-3
			c9.8,0,16.9,3.2,21.3,9.5c4.5,6.3,6.7,14.5,6.7,24.7c0,0.7-0.3,1.1-0.9,1.1l-45.5,2.3c0,4.5,0.6,8.8,1.7,12.6
			c1.2,3.9,2.8,7.2,4.9,10c2.1,2.8,4.6,5,7.6,6.6s6.4,2.4,10.1,2.4c3.3,0,6.6-0.9,9.7-2.6C227,115.3,229.6,113.1,231.7,110.4z
			 M206.2,57c-5.2,0-9.3,2.3-12.2,6.8c-2.9,4.6-4.4,10.5-4.4,17.9l29.6-1.6c1.6,0,2.3-0.8,2.3-2.3c0-2.2-0.3-4.5-0.9-7
			c-0.6-2.4-1.6-4.7-2.8-6.7c-1.3-2-2.8-3.7-4.8-5.1C211.1,57.7,208.8,57,206.2,57z"/>
	</g>
</g>
<path class="st0" d="M228.5,16.5L228,51c0,0,4,5,7,0l11-28c0,0,0-5-4-6S228.5,16.5,228.5,16.5z"/>
<g>
	<path class="st1" d="M101.1,145.5c0,1-0.4,1.8-1.2,2.5c-0.9,0.8-2.4,1.1-4.6,1.1c-1.1,0-2-0.1-2.8-0.2V137c0.9-0.2,2-0.3,3.3-0.3
		c1.5,0,2.7,0.3,3.5,0.8c0.9,0.5,1.3,1.3,1.3,2.3c0,1.2-0.7,2.1-2,2.6v0c0.7,0.2,1.3,0.5,1.8,1C100.8,144,101.1,144.7,101.1,145.5z
		 M98.2,140.1c0-1.1-0.7-1.6-2.2-1.6c-0.5,0-0.9,0-1.2,0.1v3.2h1.1c0.7,0,1.3-0.2,1.7-0.5C98,141,98.2,140.6,98.2,140.1z
		 M98.6,145.4c0-0.6-0.3-1.1-0.8-1.5c-0.5-0.3-1.1-0.5-1.9-0.5h-1v3.8c0.2,0,0.6,0.1,1.1,0.1c0.8,0,1.4-0.1,1.8-0.4
		C98.3,146.6,98.6,146.1,98.6,145.4z"/>
	<path class="st1" d="M110.7,144.3c0,0.4,0,0.7-0.1,1h-5.8c0,0.7,0.3,1.2,0.8,1.6c0.5,0.3,1.1,0.5,1.8,0.5c0.9,0,1.7-0.1,2.4-0.4
		l0.3,1.6c-0.9,0.4-1.9,0.5-3.1,0.5c-1.4,0-2.6-0.4-3.4-1.2c-0.8-0.8-1.2-1.9-1.2-3.2c0-1.3,0.4-2.4,1.1-3.3c0.8-1,1.9-1.4,3.3-1.4
		c1.3,0,2.3,0.5,3,1.4C110.4,142.2,110.7,143.1,110.7,144.3z M108.5,143.7c0-0.5-0.1-1-0.3-1.3c-0.3-0.5-0.8-0.7-1.4-0.7
		c-0.6,0-1.1,0.2-1.4,0.7c-0.3,0.4-0.5,0.8-0.5,1.4H108.5z"/>
	<path class="st1" d="M119.6,149h-2.1l-0.2-1h-0.1c-0.6,0.8-1.5,1.2-2.6,1.2c-0.9,0-1.6-0.3-2.1-0.8c-0.5-0.5-0.7-1.1-0.7-1.8
		c0-1.1,0.5-1.9,1.4-2.5c0.9-0.6,2.2-0.8,3.8-0.8v-0.1c0-0.9-0.6-1.4-1.7-1.4c-0.9,0-1.7,0.2-2.4,0.6l-0.5-1.5
		c0.9-0.5,2-0.8,3.2-0.8c2.5,0,3.7,1.2,3.7,3.7v3.1C119.4,147.8,119.5,148.5,119.6,149z M117.1,145.9v-1.2c-2,0-2.9,0.5-2.9,1.6
		c0,0.8,0.4,1.2,1.2,1.2c0.4,0,0.7-0.1,1-0.3c0.3-0.2,0.5-0.5,0.6-0.8C117.1,146.3,117.1,146.1,117.1,145.9z"/>
	<path class="st1" d="M129.6,149h-2.1l-0.1-1.3h-0.1c-0.6,1-1.5,1.5-2.8,1.5c-0.9,0-1.6-0.3-2.2-0.9c-0.6-0.6-0.9-1.6-0.9-3v-5.2
		h2.4v4.8c0,1.5,0.5,2.3,1.6,2.3c0.8,0,1.3-0.4,1.6-1.1c0.1-0.2,0.1-0.4,0.1-0.7v-5.3h2.4v6.1C129.5,147.2,129.6,148.1,129.6,149z"
		/>
	<path class="st1" d="M136.7,141.9h-2.1v3.7c0,1.1,0.4,1.6,1.1,1.6c0.3,0,0.6,0,0.8-0.1l0,1.8c-0.4,0.1-1,0.2-1.7,0.2
		c-0.8,0-1.5-0.2-2-0.7c-0.5-0.5-0.7-1.3-0.7-2.5v-4H131v-1.7h1.2v-1.6l2.3-0.6v2.3h2.1V141.9z"/>
	<path class="st1" d="M146.4,140.2l-2.2,6c-1.1,2.9-2.1,4.7-3.1,5.6c-0.7,0.7-1.6,1-2.4,1.2l-0.6-2c0.4-0.1,0.8-0.3,1.3-0.6
		c0.5-0.3,0.9-0.7,1.1-1.3c0.1-0.2,0.1-0.3,0.1-0.4c0-0.1,0-0.2-0.1-0.4l-3.2-8.1h2.6l1.5,4.6c0.1,0.4,0.3,0.9,0.5,1.7h0.1
		c0.1-0.4,0.2-0.9,0.4-1.7l1.3-4.6H146.4z"/>
	<path class="st1" d="M159.5,145.5c0,1.1-0.4,1.9-1.2,2.6c-0.8,0.7-2,1.1-3.6,1.1c-1.4,0-2.5-0.2-3.3-0.7l0.5-1.9
		c0.9,0.5,1.9,0.8,3,0.8c0.7,0,1.2-0.1,1.6-0.4c0.4-0.3,0.6-0.7,0.6-1.1c0-0.4-0.2-0.8-0.5-1.1s-0.9-0.6-1.6-0.9
		c-2.2-0.8-3.3-2-3.3-3.5c0-1,0.4-1.9,1.2-2.5c0.8-0.7,1.9-1,3.2-1c1.2,0,2.1,0.2,2.9,0.6l-0.6,1.9c-0.7-0.4-1.6-0.6-2.4-0.6
		c-0.6,0-1.1,0.1-1.5,0.4c-0.3,0.3-0.5,0.6-0.5,1c0,0.4,0.2,0.8,0.6,1.1c0.3,0.2,0.9,0.5,1.7,0.9
		C158.5,142.7,159.5,143.9,159.5,145.5z"/>
	<path class="st1" d="M169.9,144.5c0,1.4-0.4,2.5-1.2,3.4c-0.8,0.9-1.9,1.3-3.3,1.3c-1.3,0-2.4-0.4-3.2-1.3
		c-0.8-0.8-1.2-1.9-1.2-3.2c0-1.4,0.4-2.5,1.2-3.4c0.8-0.9,1.9-1.3,3.4-1.3c1.3,0,2.4,0.4,3.2,1.3
		C169.5,142.1,169.9,143.2,169.9,144.5z M167.4,144.6c0-0.7-0.1-1.4-0.4-1.9c-0.4-0.6-0.9-1-1.6-1c-0.7,0-1.3,0.3-1.6,1
		c-0.3,0.5-0.5,1.2-0.5,1.9c0,0.7,0.2,1.4,0.5,1.9c0.4,0.6,0.9,1,1.6,1c0.7,0,1.2-0.3,1.6-1C167.3,146,167.4,145.3,167.4,144.6z"/>
	<path class="st1" d="M178.8,149h-2.1l-0.2-1h-0.1c-0.6,0.8-1.5,1.2-2.6,1.2c-0.9,0-1.6-0.3-2.1-0.8c-0.5-0.5-0.7-1.1-0.7-1.8
		c0-1.1,0.5-1.9,1.4-2.5c0.9-0.6,2.2-0.8,3.8-0.8v-0.1c0-0.9-0.6-1.4-1.7-1.4c-0.9,0-1.7,0.2-2.4,0.6l-0.5-1.5
		c0.9-0.5,2-0.8,3.2-0.8c2.5,0,3.7,1.2,3.7,3.7v3.1C178.7,147.8,178.7,148.5,178.8,149z M176.4,145.9v-1.2c-2,0-2.9,0.5-2.9,1.6
		c0,0.8,0.4,1.2,1.2,1.2c0.4,0,0.7-0.1,1-0.3c0.3-0.2,0.5-0.5,0.6-0.8C176.4,146.3,176.4,146.1,176.4,145.9z"/>
	<path class="st1" d="M189.8,144.5c0,1.5-0.4,2.7-1.3,3.5c-0.7,0.8-1.7,1.2-2.7,1.2c-1.1,0-1.9-0.4-2.4-1.1h0v4.5H181v-9.4
		c0-0.9,0-1.9-0.1-2.9h2.1l0.1,1.3h0c0.7-1,1.7-1.5,3-1.5c1,0,1.9,0.4,2.6,1.2C189.5,142.1,189.8,143.2,189.8,144.5z M187.4,144.6
		c0-0.8-0.2-1.5-0.5-2c-0.4-0.5-0.9-0.8-1.5-0.8c-0.6,0-1,0.2-1.4,0.6s-0.6,0.9-0.6,1.5v1.4c0,0.6,0.2,1,0.5,1.4
		c0.4,0.4,0.8,0.6,1.4,0.6c0.7,0,1.2-0.3,1.6-0.8C187.2,146.1,187.4,145.5,187.4,144.6z"/>
</g>
<g>
</g>
<g>
</g>
<g>
</g>
<g>
</g>
<g>
</g>
<g>
</g>
<g>
</g>
<g>
</g>
<g>
</g>
<g>
</g>
<g>
</g>
<g>
</g>
<g>
</g>
<g>
</g>
<g>
</g>
</svg>
